HIERARCHY
ROOT Hips
{
    OFFSET 0.000000 0.000000 0.000000
    CHANNELS 6 Xposition Yposition Zposition Zrotation Xrotation Yrotation
    JOINT Spine
    {
        OFFSET -0.000000 7.246840 0.000000
        CHANNELS 3 Zrotation Xrotation Yrotation
        JOINT Spine1
        {
            OFFSET -0.000000 20.289354 0.000000
            CHANNELS 3 Zrotation Xrotation Yrotation
            JOINT Neck
            {
                OFFSET -0.000000 20.206032 1.836912
                CHANNELS 3 Zrotation Xrotation Yrotation
                JOINT Head
                {
                    OFFSET -0.000000 12.372654 -1.767522
                    CHANNELS 3 Zrotation Xrotation Yrotation
                    End Site
                    {
                        OFFSET -0.000000 22.094025 0.000000
                    }
                }
            }
            JOINT LeftShoulder
            {
                OFFSET 3.465871 17.201674 -0.568930
                CHANNELS 3 Zrotation Xrotation Yrotation
                JOINT LeftArm
                {
                    OFFSET 14.070313 0.000000 0.000000
                    CHANNELS 3 Zrotation Xrotation Yrotation
                    JOINT LeftForeArm
                    {
                        OFFSET 26.549477 0.000000 0.000000
                        CHANNELS 3 Zrotation Xrotation Yrotation
                        JOINT LeftHand
                        {
                            OFFSET 18.880413 0.000000 0.000000
                            CHANNELS 3 Zrotation Xrotation Yrotation
                            End Site
                            {
                                OFFSET 13.256415 0.000000 0.000000
                            }
                        }
                    }
                }
            }
            JOINT RightShoulder
            {
                OFFSET -3.526370 17.201674 -0.568930
                CHANNELS 3 Zrotation Xrotation Yrotation
                JOINT RightArm
                {
                    OFFSET -14.070313 0.000000 0.000000
                    CHANNELS 3 Zrotation Xrotation Yrotation
                    JOINT RightForeArm
                    {
                        OFFSET -26.549477 0.000000 0.000000
                        CHANNELS 3 Zrotation Xrotation Yrotation
                        JOINT RightHand
                        {
                            OFFSET -18.880413 0.000000 0.000000
                            CHANNELS 3 Zrotation Xrotation Yrotation
                            End Site
                            {
                                OFFSET -13.256415 0.000000 0.000000
                            }
                        }
                    }
                }
            }
        }
    }
    JOINT LeftUpLeg
    {
        OFFSET 8.837609 0.000000 0.000000
        CHANNELS 3 Zrotation Xrotation Yrotation
        JOINT LeftLeg
        {
            OFFSET -0.000000 -41.345005 0.000000
            CHANNELS 3 Zrotation Xrotation Yrotation
            JOINT LeftFoot
            {
                OFFSET -0.000000 -35.500874 0.000000
                CHANNELS 3 Zrotation Xrotation Yrotation
                JOINT LeftToeBase
                {
                    OFFSET -0.000000 -5.744446 13.256415
                    CHANNELS 3 Zrotation Xrotation Yrotation
                    End Site
                    {
                        OFFSET -0.000000 0.000000 3.535044
                    }
                }
            }
        }
    }
    JOINT RightUpLeg
    {
        OFFSET -8.837609 0.000000 0.000000
        CHANNELS 3 Zrotation Xrotation Yrotation
        JOINT RightLeg
        {
            OFFSET -0.000000 -41.345005 0.000000
            CHANNELS 3 Zrotation Xrotation Yrotation
            JOINT RightFoot
            {
                OFFSET -0.000000 -35.500874 0.000000
                CHANNELS 3 Zrotation Xrotation Yrotation
                JOINT RightToeBase
                {
                    OFFSET -0.000000 -5.744446 13.256415
                    CHANNELS 3 Zrotation Xrotation Yrotation
                    End Site
                    {
                        OFFSET -0.000000 0.000000 3.535044
                    }
                }
            }
        }
    }
}
MOTION
Frames:    9
Frame Time:    0.010000
4.185059    82.334343    9.447530    2.408115    5.289124    2.218107    -2.902186    -14.774528    -0.306410    -1.315322    2.081497    0.094194    2.162315    29.029865    -2.934838    3.146727    -9.309214    -2.084830    18.732630    1.375926    7.749787    -27.769962    11.593324    -16.201445    7.676414    -11.180529    -13.218051    -35.433071    -10.293116    -0.039084    -14.023417    1.375022    12.602209    25.108660    13.417092    8.274380    -3.664823    -8.138527    3.245177    12.134075    -6.358541    15.803416    -4.342854    8.164354    2.380830    -1.855530    -10.462830    -5.386211    2.287879    1.206053    -1.252714    1.464328    -1.616825    -2.070078    -7.431059    5.733891    2.825192    8.372767    -10.878467    4.370847    0.261615    -1.362933    -3.516337    -0.344243    0.316479    0.615237    
4.172678    82.346863    9.447126    2.411659    5.310210    2.158559    -2.906484    -14.812498    -0.292801    -1.329374    2.078105    0.109862    2.146906    29.007856    -2.919733    3.199350    -9.252687    -2.061403    18.738571    1.421476    7.786070    -27.782171    11.535659    -16.169867    7.687571    -11.231783    -13.270597    -35.485535    -10.346386    -0.017865    -14.006267    1.355714    12.640094    25.098980    13.517612    8.259672    -3.654575    -8.079799    3.240638    12.176538    -6.304693    15.705305    -4.367800    8.146237    2.470508    -1.807724    -10.473663    -5.427900    2.151958    1.185947    -1.282920    1.407836    -1.488037    -1.988647    -7.431391    5.701793    2.844046    8.384272    -10.892469    4.363595    0.274297    -1.322760    -3.475024    -0.334046    0.281423    0.597238    
4.163518    82.358398    9.446480    2.419498    5.320971    2.099736    -2.906369    -14.825759    -0.273070    -1.339472    2.056397    0.129655    2.119739    29.006218    -2.911032    3.235535    -9.230473    -2.048386    18.723671    1.456218    7.826385    -27.784048    11.500731    -16.146313    7.703517    -11.344269    -13.323294    -35.597252    -10.459362    -0.000269    -14.008383    1.347119    12.660942    25.115248    13.534098    8.266848    -3.661586    -8.012274    3.195202    12.239358    -6.234067    15.662724    -4.390670    8.127951    2.538071    -1.791980    -10.470179    -5.330245    2.276730    1.293992    -1.319339    1.492152    -1.712090    -2.110648    -7.439749    5.681041    2.876068    8.393512    -10.906988    4.369578    0.263801    -1.276910    -3.468843    -0.331163    0.204778    0.592572    
4.151632    82.366455    9.443527    2.422029    5.326634    2.045678    -2.903441    -14.826708    -0.255912    -1.350606    2.030133    0.146370    2.099226    28.991535    -2.898987    3.258465    -9.192915    -2.034701    18.707918    1.512346    7.878754    -27.717976    11.631798    -16.195471    7.736290    -11.532653    -13.235884    -35.623947    -10.587480    -0.199590    -14.016794    1.332779    12.692645    25.142859    13.581364    8.257544    -3.667496    -7.990741    3.129612    12.268147    -6.208008    15.684651    -4.408883    8.110106    2.628343    -1.764545    -10.450911    -5.382446    2.255066    1.315471    -1.278361    1.490777    -1.746167    -2.109147    -7.434347    5.664501    2.916331    8.388709    -10.918955    4.375882    0.266330    -1.247804    -3.469815    -0.308229    0.166958    0.551759    
4.141836    82.372231    9.439422    2.424758    5.323904    1.990950    -2.905219    -14.817098    -0.229475    -1.351261    2.004344    0.172333    2.076916    28.975187    -2.896584    3.296435    -9.160732    -2.027868    18.708490    1.520983    7.886755    -27.753256    11.599611    -16.153675    7.750925    -11.629635    -13.252989    -35.596916    -10.651376    -0.296644    -14.023230    1.322006    12.706079    25.151117    13.654021    8.232900    -3.656852    -8.070046    3.086235    12.274637    -6.280716    15.755100    -4.422707    8.093447    2.712646    -1.761433    -10.415395    -5.291687    2.322960    1.309293    -1.397374    1.482381    -1.773333    -2.097623    -7.431065    5.653761    2.984530    8.387434    -10.931814    4.348989    0.266005    -1.219969    -3.460367    -0.290937    0.124689    0.521040    
4.130913    82.376007    9.436570    2.420613    5.306967    1.933860    -2.885095    -14.793596    -0.203302    -1.369323    1.985664    0.195317    2.082354    29.033873    -2.957960    3.303779    -9.255828    -2.085515    18.705975    1.530343    7.919380    -27.769808    11.578767    -16.121765    7.754509    -11.691126    -13.278406    -35.522045    -10.677357    -0.403948    -14.030713    1.322330    12.714325    25.157488    13.675427    8.232177    -3.657341    -8.171466    3.036379    12.317796    -6.369284    15.835722    -4.423886    8.094149    2.754799    -1.745178    -10.394468    -5.282770    2.325371    1.303372    -1.384033    1.479137    -1.759329    -2.092850    -7.420648    5.660073    3.051322    8.382873    -10.965531    4.151011    0.264131    -1.167459    -3.266694    -0.234760    0.061696    0.420720    
4.116051    82.375557    9.433319    2.405652    5.286314    1.874869    -2.863036    -14.771269    -0.174109    -1.380431    1.974316    0.220833    2.037587    28.936907    -2.884980    3.332948    -9.135551    -2.014127    18.723743    1.484072    7.934073    -27.823280    11.544567    -16.061142    7.762702    -11.654080    -13.275186    -35.446346    -10.603651    -0.518928    -13.940134    1.258217    12.739866    25.054935    13.752787    8.161750    -3.609794    -8.269478    3.007321    12.350818    -6.454560    15.933206    -4.400845    8.092251    2.787279    -1.761522    -10.346453    -5.176325    2.339034    1.269769    -1.470061    1.450298    -1.780062    -2.052313    -7.393008    5.666543    3.091214    8.379162    -10.972779    4.172389    0.249155    -1.150092    -3.283707    -0.228510    0.029564    0.409660    
4.100965    82.373466    9.430329    2.389959    5.255262    1.812517    -2.837659    -14.734461    -0.142940    -1.400629    1.964520    0.248307    2.040166    28.915878    -2.889204    3.334344    -9.140896    -2.018185    18.722517    1.475414    7.954744    -27.824314    11.502515    -16.031738    7.762102    -11.616302    -13.291367    -35.359554    -10.548351    -0.572526    -14.000029    1.325562    12.722117    25.102123    13.702991    8.216796    -3.630323    -8.346449    2.956319    12.389740    -6.518684    16.012833    -4.385290    8.110095    2.852414    -1.745993    -10.322752    -5.272626    2.309220    1.254812    -1.367402    1.449944    -1.785338    -2.051879    -7.364676    5.678189    3.106806    8.374635    -10.964378    4.188722    0.262058    -1.143565    -3.252186    -0.194444    0.013752    0.348649    
4.084121    82.370201    9.425517    2.365732    5.229072    1.747281    -2.814063    -14.704206    -0.115685    -1.387906    1.949193    0.271290    2.085776    29.040867    -2.963199    3.249086    -9.352606    -2.099841    18.685959    1.456121    7.965884    -27.772505    11.594247    -16.000031    7.794739    -11.632911    -13.240028    -35.309811    -10.521559    -0.711421    -14.008312    1.322570    12.751285    25.091312    13.669343    8.191090    -3.648495    -8.447461    2.925023    12.364007    -6.623045    16.024115    -4.348104    8.121629    2.853592    -1.754798    -10.295325    -5.202711    2.315571    1.212465    -1.392590    1.421534    -1.793153    -2.011777    -7.323788    5.682523    3.128753    8.368919    -10.962428    4.140185    0.236931    -1.131724    -3.175343    -0.189244    0.009535    0.339340    
